#!OML:ASF I:\Actors\actors\Patient Classification 1\Patient 1\Session 1\Subject1.ASF
:FULLY-SPECIFIED
:DEGREES
1816
root 0.570337 17.4462 9.46322 9.39697 -0.838797 -9.2352
lowerback -1.64321 1.55865 7.27096
upperback -7.70883 2.37758 1.80374
thorax -6.96275 0.791634 -2.26399
lowerneck -9.522 -5.80146 -5.39134
upperneck 24.1243 -9.24296 8.22598
head 9.84125 -3.94292 2.70299
rclavicle 1.09332e-015 -5.32743e-014
rhumerus -55.373 -31.8403 -57.5386
rradius 13.9839
rwrist 47.4524
rhand 17.8402 -29.9565
rfingers 7.12502
rthumb 42.5181 -54.3706
lclavicle 1.09332e-015 -5.32743e-014
lhumerus -55.7118 39.3802 50.2986
lradius 11.2573
lwrist -49.1104
lhand -21.0054 -10.9561
lfingers 7.12502
lthumb 5.36916 18.9558
rfemur -2.43696 24.7705 26.6864
rtibia 2.14232
rfoot -13.9667 -27.6488
rtoes 3.66671
lfemur 9.72999 -51.6944 -15.4727
ltibia -5.15304
lfoot -36.3354 58.1651
ltoes 18.5889
1817
root 0.570803 17.4463 9.46374 9.37274 -0.833776 -9.22788
lowerback -1.66138 1.5486 7.26622
upperback -7.72157 2.36275 1.7999
thorax -6.96743 0.784013 -2.26442
lowerneck -9.59789 -5.7818 -5.39145
upperneck 24.1697 -9.22062 8.24053
head 9.87107 -3.92786 2.70925
rclavicle 1.88845e-015 8.74653e-015
rhumerus -55.0568 -31.6408 -57.9048
rradius 13.9198
rwrist 46.932
rhand 17.9862 -29.594
rfingers 7.12502
rthumb 42.6547 -53.9608
lclavicle 1.88845e-015 8.74653e-015
lhumerus -56.0259 39.7247 49.6759
lradius 11.2349
lwrist -49.2166
lhand -21.098 -11.2911
lfingers 7.12502
lthumb 5.27977 18.6231
rfemur -2.39644 24.7688 26.6889
rtibia 2.10245
rfoot -13.9105 -27.6472
rtoes 3.65603
lfemur 9.80256 -51.7526 -15.5509
ltibia -5.14046
lfoot -36.5286 58.1529
ltoes 18.7473
1818
root 0.571436 17.4464 9.46461 9.36029 -0.836598 -9.22137
lowerback -1.70926 1.55352 7.27949
upperback -7.72173 2.36424 1.78789
thorax -6.93898 0.78448 -2.28298
lowerneck -9.6367 -5.79433 -5.37081
upperneck 24.1395 -9.23362 8.22109
head 9.86679 -3.93363 2.69593
rclavicle -1.86361e-014 -2.22639e-014
rhumerus -54.8538 -31.5866 -58.1151
rradius 13.9174
rwrist 46.3701
rhand 18.1817 -29.3661
rfingers 7.12502
rthumb 42.8376 -53.6692
lclavicle -1.86361e-014 -2.22639e-014
lhumerus -55.9687 39.6921 49.7048
lradius 11.3126
lwrist -48.5085
lhand -21.3908 -11.3477
lfingers 7.12502
lthumb 4.99704 18.5734
rfemur -2.37026 24.7699 26.6854
rtibia 2.08616
rfoot -13.9064 -27.631
rtoes 3.70997
lfemur 9.83396 -51.7354 -15.5881
ltibia -5.14257
lfoot -36.528 58.1364
ltoes 18.7354
1819
root 0.571817 17.4464 9.4652 9.35168 -0.836479 -9.21965
lowerback -1.74642 1.57303 7.31197
upperback -7.71863 2.38604 1.7654
thorax -6.91047 0.793534 -2.32417
lowerneck -9.64391 -5.85915 -5.35779
upperneck 24.0467 -9.30491 8.1628
head 9.83715 -3.97352 2.66315
rclavicle 1.74931e-014 0
rhumerus -54.5728 -31.3512 -58.575
rradius 13.9687
rwrist 45.5218
rhand 18.2672 -29.2915
rfingers 7.12502
rthumb 42.9176 -53.5665
lclavicle 1.74931e-014 0
lhumerus -55.7289 39.5319 49.992
lradius 11.3924
lwrist -47.5015
lhand -21.7733 -11.4732
lfingers 7.12502
lthumb 4.62763 18.4563
rfemur -2.36011 24.7567 26.6836
rtibia 2.10382
rfoot -13.9609 -27.6135
rtoes 3.84262
lfemur 9.78562 -51.581 -15.5329
ltibia -5.16526
lfoot -36.2729 58.0392
ltoes 18.6837
1820
root 0.571772 17.4465 9.46559 9.34054 -0.827187 -9.22169
lowerback -1.77046 1.58069 7.32496
upperback -7.72064 2.39381 1.75509
thorax -6.89732 0.796649 -2.34173
lowerneck -9.70129 -5.94934 -5.40142
upperneck 24.0971 -9.43028 8.16903
head 9.87903 -4.03222 2.65527
rclavicle -1.31695e-014 1.74931e-014
rhumerus -54.253 -30.8727 -59.2618
rradius 14.1069
rwrist 44.5465
rhand 18.3217 -29.22
rfingers 7.12502
rthumb 42.9685 -53.4771
lclavicle -1.31695e-014 1.74931e-014
lhumerus -55.6363 39.5101 50.0653
lradius 11.4466
lwrist -46.7472
lhand -21.9895 -11.8995
lfingers 7.12502
lthumb 4.41896 18.0344
rfemur -2.3504 24.7796 26.6914
rtibia 2.12671
rfoot -14.0487 -27.6222
rtoes 4.03561
lfemur 9.70987 -51.3859 -15.4373
ltibia -5.19343
lfoot -35.9338 57.9052
ltoes 18.5614
1821
root 0.571807 17.4467 9.46626 9.31418 -0.825196 -9.23304
lowerback -1.79236 1.59695 7.3387
upperback -7.71146 2.41336 1.75777
thorax -6.87266 0.806682 -2.34643
lowerneck -9.75514 -6.04251 -5.52246
upperneck 24.1065 -9.57267 8.29709
head 9.91776 -4.09376 2.70057
rclavicle 7.20594e-015 -6.36111e-015
rhumerus -53.9827 -30.4036 -59.8823
rradius 14.2757
rwrist 43.6865
rhand 18.4999 -29.1123
rfingers 7.12502
rthumb 43.1351 -53.3103
lclavicle 7.20594e-015 -6.36111e-015
lhumerus -55.4247 39.3223 50.4146
lradius 11.5411
lwrist -45.8541
lhand -22.0788 -12.2007
lfingers 7.12502
lthumb 4.33268 17.735
rfemur -2.31761 24.8351 26.7262
rtibia 2.14898
rfoot -14.1237 -27.663
rtoes 4.09679
lfemur 9.71637 -51.2916 -15.4192
ltibia -5.20077
lfoot -35.7295 57.8762
ltoes 18.4123
1822
root 0.572426 17.446 9.46715 9.29101 -0.829133 -9.22305
lowerback -1.82879 1.62417 7.34545
upperback -7.69022 2.44496 1.75515
thorax -6.82521 0.824005 -2.35262
lowerneck -9.6936 -5.79692 -5.35621
upperneck 23.9619 -9.19989 8.1416
head 9.80666 -3.92678 2.66684
rclavicle 2.99668e-014 1.43125e-014
rhumerus -53.8276 -30.2117 -60.1579
rradius 14.3495
rwrist 43.1907
rhand 18.6156 -28.9147
rfingers 7.12502
rthumb 43.2433 -53.0741
lclavicle 2.99668e-014 1.43125e-014
lhumerus -55.0558 38.9695 51.045
lradius 11.6541
lwrist -44.7754
lhand -22.174 -12.2505
lfingers 7.12502
lthumb 4.24071 17.6871
rfemur -2.29002 24.87 26.7326
rtibia 2.17639
rfoot -14.1723 -27.7065
rtoes 4.07241
lfemur 9.76053 -51.2739 -15.4774
ltibia -5.19376
lfoot -35.5599 57.9396
ltoes 18.2106
1823
root 0.573458 17.4444 9.4674 9.29759 -0.835008 -9.19114
lowerback -1.86626 1.64003 7.33292
upperback -7.69255 2.46207 1.74915
thorax -6.80446 0.833775 -2.35139
lowerneck -9.74868 -5.79797 -5.37506
upperneck 24.0468 -9.18554 8.07288
head 9.84377 -3.92551 2.64685
rclavicle 9.59136e-015 4.29375e-014
rhumerus -53.7365 -30.0964 -60.2848
rradius 14.3612
rwrist 42.8372
rhand 18.5856 -28.6978
rfingers 7.12502
rthumb 43.2153 -52.8672
lclavicle 9.59136e-015 4.29375e-014
lhumerus -54.6753 38.5151 51.7657
lradius 11.8026
lwrist -43.5787
lhand -22.1879 -12.2294
lfingers 7.12502
lthumb 4.22733 17.7084
rfemur -2.30819 24.8737 26.6872
rtibia 2.2055
rfoot -14.1803 -27.7052
rtoes 4.20603
lfemur 9.75209 -51.2716 -15.519
ltibia -5.18526
lfoot -35.5601 57.9327
ltoes 18.2545
1824
root 0.574555 17.4433 9.46652 9.30587 -0.844237 -9.16402
lowerback -1.87455 1.64495 7.32168
upperback -7.71229 2.4685 1.74371
thorax -6.82056 0.836504 -2.35102
lowerneck -9.80032 -5.80462 -5.50384
upperneck 24.2216 -9.18953 8.09473
head 9.92414 -3.93146 2.67555
rclavicle -2.45499e-014 2.82274e-014
rhumerus -53.614 -29.8326 -60.5515
rradius 14.4108
rwrist 42.3636
rhand 18.553 -28.5788
rfingers 7.12502
rthumb 43.1848 -52.7591
lclavicle -2.45499e-014 2.82274e-014
lhumerus -54.2542 37.8833 52.6662
lradius 12.0358
lwrist -42.1755
lhand -22.0544 -12.0388
lfingers 7.12502
lthumb 4.35622 17.8964
rfemur -2.3471 24.8223 26.6354
rtibia 2.22263
rfoot -14.1032 -27.671
rtoes 4.13265
lfemur 9.7232 -51.2656 -15.5373
ltibia -5.17015
lfoot -35.7492 57.8538
ltoes 18.4866
1825
root 0.574942 17.4432 9.46547 9.29529 -0.84744 -9.13014
lowerback -1.88132 1.65134 7.28812
upperback -7.7192 2.47559 1.73421
thorax -6.82377 0.841524 -2.3425
lowerneck -9.78018 -5.82593 -5.75826
upperneck 24.1618 -9.20754 8.25924
head 9.92149 -3.94719 2.77375
rclavicle 1.6201e-014 1.82882e-014
rhumerus -53.5005 -29.529 -60.8868
rradius 14.5328
rwrist 41.9589
rhand 18.5503 -28.5488
rfingers 7.12502
rthumb 43.1823 -52.73
lclavicle 1.6201e-014 1.82882e-014
lhumerus -53.9305 37.3502 53.4197
lradius 12.2576
lwrist -40.9963
lhand -21.8773 -11.7126
lfingers 7.12502
lthumb 4.52726 18.219
rfemur -2.36911 24.7665 26.5887
rtibia 2.23931
rfoot -14.0258 -27.6611
rtoes 3.71997
lfemur 9.7209 -51.2611 -15.5818
ltibia -5.15732
lfoot -35.8367 57.8075
ltoes 18.5344
1826
root 0.574843 17.4435 9.46465 9.27825 -0.852731 -9.1049
lowerback -1.89186 1.66142 7.25242
upperback -7.71654 2.48681 1.72793
thorax -6.81419 0.849494 -2.32935
lowerneck -9.79848 -5.82769 -5.8319
upperneck 24.16 -9.20955 8.31725
head 9.93124 -3.94805 2.80577
rclavicle 2.13694e-014 -2.78299e-015
rhumerus -53.4115 -29.2487 -61.2057
rradius 14.6724
rwrist 41.69
rhand 18.4781 -28.5218
rfingers 7.12502
rthumb 43.1148 -52.727
lclavicle 2.13694e-014 -2.78299e-015
lhumerus -53.6666 36.9185 54.0493
lradius 12.4357
lwrist -40.0178
lhand -21.7106 -11.4814
lfingers 7.12502
lthumb 4.6882 18.4467
rfemur -2.3715 24.7666 26.563
rtibia 2.25571
rfoot -13.9847 -27.673
rtoes 3.59205
lfemur 9.73198 -51.2264 -15.6126
ltibia -5.17223
lfoot -35.6743 57.8185
ltoes 18.3847
1827
root 0.575246 17.444 9.46271 9.25947 -0.862074 -9.08113
lowerback -1.87774 1.66966 7.22622
upperback -7.71357 2.49814 1.72139
thorax -6.81831 0.856421 -2.32251
lowerneck -9.84001 -5.81459 -5.71986
upperneck 24.1864 -9.1752 8.17002
head 9.93259 -3.93577 2.73863
rclavicle 6.5102e-015 -2.42517e-014
rhumerus -53.2767 -28.9245 -61.5834
rradius 14.7883
rwrist 41.2688
rhand 18.3735 -28.5204
rfingers 7.12502
rthumb 43.017 -52.7603
lclavicle 6.5102e-015 -2.42517e-014
lhumerus -53.3081 36.361 54.8161
lradius 12.6044
lwrist -38.9618
lhand -21.4759 -11.4229
lfingers 7.12502
lthumb 4.91484 18.5001
rfemur -2.36917 24.7557 26.5341
rtibia 2.26219
rfoot -13.9449 -27.6528
rtoes 3.72622
lfemur 9.72385 -51.1601 -15.6266
ltibia -5.18448
lfoot -35.38 57.8589
ltoes 18.1643
1828
root 0.576171 17.445 9.4594 9.24653 -0.869274 -9.0371
lowerback -1.85677 1.66799 7.17586
upperback -7.70568 2.49599 1.71446
thorax -6.82279 0.858215 -2.30244
lowerneck -9.94634 -5.79801 -5.60137
upperneck 24.2256 -9.13459 8.01722
head 9.95004 -3.9185 2.66762
rclavicle -7.7526e-015 -3.93594e-014
rhumerus -53.1206 -28.6556 -61.9065
rradius 14.868
rwrist 40.7587
rhand 18.3038 -28.5298
rfingers 7.12502
rthumb 42.9518 -52.7928
lclavicle -7.7526e-015 -3.93594e-014
lhumerus -53.0135 35.9227 55.4067
lradius 12.7012
lwrist -38.2461
lhand -21.2175 -11.582
lfingers 7.12502
lthumb 5.16432 18.335
rfemur -2.38408 24.7188 26.4689
rtibia 2.28258
rfoot -13.9881 -27.5984
rtoes 3.91434
lfemur 9.70326 -51.1524 -15.6721
ltibia -5.16136
lfoot -35.2676 57.8862
ltoes 18.1011
1829
root 0.577071 17.4455 9.4566 9.2581 -0.869757 -9.0111
lowerback -1.86586 1.65915 7.13908
upperback -7.70337 2.48226 1.71382
thorax -6.81704 0.853903 -2.28201
lowerneck -9.9942 -5.78163 -5.57457
upperneck 24.2281 -9.11409 8.01366
head 9.95699 -3.90551 2.66325
rclavicle -7.25564e-015 1.82882e-014
rhumerus -53.0696 -28.5942 -61.9692
rradius 14.911
rwrist 40.5241
rhand 18.1799 -28.4201
rfingers 7.12502
rthumb 42.8359 -52.7238
lclavicle -7.25564e-015 1.82882e-014
lhumerus -52.8331 35.6444 55.7818
lradius 12.7504
lwrist -37.9091
lhand -21.0507 -11.8943
lfingers 7.12502
lthumb 5.32539 18.0188
rfemur -2.42503 24.6867 26.4146
rtibia 2.3007
rfoot -14.0233 -27.5638
rtoes 4.07566
lfemur 9.62831 -51.1221 -15.6446
ltibia -5.14718
lfoot -35.2402 57.8425
ltoes 18.0759
